<svg width="94" height="94" viewBox="0 0 94 94" fill="none" xmlns="http://www.w3.org/2000/svg">
<path d="M94 47C94 21.0426 72.9574 0 47 0C21.0426 0 0 21.0426 0 47C0 72.9574 21.0426 94 47 94C72.9574 94 94 72.9574 94 47Z" fill="url(#paint0_linear_105_2)"/>
<path d="M25.4414 49.006L57.4789 17.189C58.0773 16.5946 59.0407 17.3179 58.6366 18.0584L46.7124 39.9132C46.4462 40.4004 46.7991 40.9952 47.3544 40.9952H67.9612C68.6251 40.9952 68.9455 41.8082 68.4601 42.2614L32.3495 75.9632C31.7021 76.5674 30.7383 75.7159 31.2582 74.999L48.3521 51.4175C48.7025 50.9339 48.3573 50.2565 47.76 50.2565H25.9568C25.3039 50.2565 24.9781 49.4661 25.4414 49.006V49.006Z" fill="white"/>
<defs>
<linearGradient id="paint0_linear_105_2" x1="47" y1="0" x2="47" y2="94" gradientUnits="userSpaceOnUse">
<stop stop-color="#7BCBD4"/>
<stop offset="1" stop-color="#29C6B7"/>
</linearGradient>
</defs>
</svg>
